{"accessors" : [{"bufferView" : 0, "byteOffset" : 0, "componentType" : 5123, "count" : 1404, "type" : "SCALAR", "max" : [1238], "min" : [0]}, {"bufferView" : 1, "byteOffset" : 0, "componentType" : 5126, "count" : 1239, "type" : "VEC3", "max" : [61.46682357788086, 117.35488891601562, 15.891478538513184], "min" : [-61.46681213378906, 17.057201385498047, -8.92520523071289], "name" : "POSITION"}, {"bufferView" : 1, "byteOffset" : 12, "componentType" : 5126, "count" : 1239, "type" : "VEC2", "max" : [0.9925000071525574, -0.007499999832361937], "min" : [0.007499999832361937, -0.9925000071525574], "name" : "TEXCOORD_0"}, {"bufferView" : 0, "byteOffset" : 2808, "componentType" : 5123, "count" : 930, "type" : "SCALAR", "max" : [796], "min" : [0]}, {"bufferView" : 2, "byteOffset" : 0, "componentType" : 5126, "count" : 797, "type" : "VEC3", "max" : [20.492046356201172, 115.5470962524414, 11.404916763305664], "min" : [-20.492063522338867, 50.0251579284668, -13.19567584991455], "name" : "POSITION"}, {"bufferView" : 2, "byteOffset" : 12, "componentType" : 5126, "count" : 797, "type" : "VEC2", "max" : [0.9925000071525574, -0.007499999832361937], "min" : [0.007499999832361937, -0.9925000071525574], "name" : "TEXCOORD_0"}, {"bufferView" : 0, "byteOffset" : 4668, "componentType" : 5123, "count" : 930, "type" : "SCALAR", "max" : [788], "min" : [0]}, {"bufferView" : 3, "byteOffset" : 0, "componentType" : 5126, "count" : 789, "type" : "VEC3", "max" : [9.147068977355957, 137.12696838378906, 10.01951789855957], "min" : [-9.14705753326416, 118.51056671142578, -2.258707046508789], "name" : "POSITION"}, {"bufferView" : 3, "byteOffset" : 12, "componentType" : 5126, "count" : 789, "type" : "VEC2", "max" : [0.9880800247192383, -0.08234400302171707], "min" : [0.06440600007772446, -0.9876289963722229], "name" : "TEXCOORD_0"}, {"bufferView" : 0, "byteOffset" : 6528, "componentType" : 5123, "count" : 915, "type" : "SCALAR", "max" : [814], "min" : [0]}, {"bufferView" : 4, "byteOffset" : 0, "componentType" : 5126, "count" : 815, "type" : "VEC3", "max" : [18.225765228271484, 152.58462524414062, 31.053142547607422], "min" : [-18.827259063720703, -0.002630000002682209, -9.815816879272461], "name" : "POSITION"}, {"bufferView" : 4, "byteOffset" : 12, "componentType" : 5126, "count" : 815, "type" : "VEC2", "max" : [0.9925000071525574, -0.007499999832361937], "min" : [0.007499999832361937, -0.9925000071525574], "name" : "TEXCOORD_0"}, {"bufferView" : 0, "byteOffset" : 8360, "componentType" : 5123, "count" : 2232, "type" : "SCALAR", "max" : [1932], "min" : [0]}, {"bufferView" : 5, "byteOffset" : 0, "componentType" : 5126, "count" : 1933, "type" : "VEC3", "max" : [69.55873107910156, 131.2659912109375, 10.114553451538086], "min" : [-69.5587158203125, 22.654460906982422, -8.794062614440918], "name" : "POSITION"}, {"bufferView" : 5, "byteOffset" : 12, "componentType" : 5126, "count" : 1933, "type" : "VEC2", "max" : [0.9925000071525574, -0.007499999832361937], "min" : [0.1850470006465912, -0.9925000071525574], "name" : "TEXCOORD_0"}, {"bufferView" : 0, "byteOffset" : 12824, "componentType" : 5123, "count" : 1128, "type" : "SCALAR", "max" : [972], "min" : [0]}, {"bufferView" : 6, "byteOffset" : 0, "componentType" : 5126, "count" : 973, "type" : "VEC3", "max" : [27.168819427490234, 118.76036834716797, 13.065314292907715], "min" : [-27.16880989074707, 56.75578308105469, -26.876142501831055], "name" : "POSITION"}, {"bufferView" : 6, "byteOffset" : 12, "componentType" : 5126, "count" : 973, "type" : "VEC2", "max" : [0.9925000071525574, -0.007499999832361937], "min" : [0.007499999832361937, -0.9925000071525574], "name" : "TEXCOORD_0"}, {"bufferView" : 0, "byteOffset" : 15080, "componentType" : 5123, "count" : 693, "type" : "SCALAR", "max" : [619], "min" : [0]}, {"bufferView" : 7, "byteOffset" : 0, "componentType" : 5126, "count" : 620, "type" : "VEC3", "max" : [23.005054473876953, 146.43368530273438, 7.672648906707764], "min" : [-23.005043029785156, 119.14221954345703, -21.35246467590332], "name" : "POSITION"}, {"bufferView" : 7, "byteOffset" : 12, "componentType" : 5126, "count" : 620, "type" : "VEC2", "max" : [0.9925000071525574, -0.007499999832361937], "min" : [0.007499999832361937, -0.9925000071525574], "name" : "TEXCOORD_0"}], "asset" : {"generator" : "Aspose.3D 23.2", "version" : "2.0"}, "buffers" : [{"uri" : "data:application/octet-stream;base64,", "byteLength" : 181140}], "bufferViews" : [{"buffer" : 0, "byteOffset" : 0, "byteLength" : 16468, "target" : 34963}, {"buffer" : 0, "byteOffset" : 16472, "byteLength" : 28080, "byteStride" : 20, "target" : 34962}, {"buffer" : 0, "byteOffset" : 44556, "byteLength" : 18600, "byteStride" : 20, "target" : 34962}, {"buffer" : 0, "byteOffset" : 63160, "byteLength" : 18600, "byteStride" : 20, "target" : 34962}, {"buffer" : 0, "byteOffset" : 81764, "byteLength" : 18300, "byteStride" : 20, "target" : 34962}, {"buffer" : 0, "byteOffset" : 100068, "byteLength" : 44640, "byteStride" : 20, "target" : 34962}, {"buffer" : 0, "byteOffset" : 144712, "byteLength" : 22560, "byteStride" : 20, "target" : 34962}, {"buffer" : 0, "byteOffset" : 167276, "byteLength" : 13860, "byteStride" : 20, "target" : 34962}], "meshes" : [{"primitives" : [{"attributes" : {"POSITION" : 1, "TEXCOORD_0" : 2}, "indices" : 0, "mode" : 4}], "name" : ""}, {"primitives" : [{"attributes" : {"POSITION" : 4, "TEXCOORD_0" : 5}, "indices" : 3, "mode" : 4}], "name" : ""}, {"primitives" : [{"attributes" : {"POSITION" : 7, "TEXCOORD_0" : 8}, "indices" : 6, "mode" : 4}], "name" : ""}, {"primitives" : [{"attributes" : {"POSITION" : 10, "TEXCOORD_0" : 11}, "indices" : 9, "mode" : 4}], "name" : ""}, {"primitives" : [{"attributes" : {"POSITION" : 13, "TEXCOORD_0" : 14}, "indices" : 12, "mode" : 4}], "name" : ""}, {"primitives" : [{"attributes" : {"POSITION" : 16, "TEXCOORD_0" : 17}, "indices" : 15, "mode" : 4}], "name" : ""}, {"primitives" : [{"attributes" : {"POSITION" : 19, "TEXCOORD_0" : 20}, "indices" : 18, "mode" : 4}], "name" : ""}], "nodes" : [{"mesh" : 0, "name" : "Mesh.006_rdmobj05"}, {"mesh" : 1, "name" : "Mesh.005_rdmobj04"}, {"mesh" : 2, "name" : "Mesh.004_rdmobj06"}, {"mesh" : 3, "name" : "Mesh.003_rdmobj01"}, {"mesh" : 4, "name" : "Mesh.002_rdmobj00"}, {"mesh" : 5, "name" : "Mesh.001_rdmobj03"}, {"mesh" : 6, "name" : "Mesh_rdmobj02"}], "scene" : 0, "scenes" : [{"nodes" : [0, 1, 2, 3, 4, 5, 6]}]}